<svg xmlns="http://www.w3.org/2000/svg" viewBox="0 0 40 40" fill="none">
    <rect width="40" height="40" rx="10" fill="#059669"/>
    <path d="M31 21.5H29L26.5 14.5H13.5L11 21.5H9C7.9 21.5 7 22.4 7 23.5V28C7 28.8 7.9 29.5 9 29.5V32.5C9 33.05 9.45 33.5 10 33.5H12C12.55 33.5 13 33.05 13 32.5V29.5H27V32.5C27 33.05 27.45 33.5 28 33.5H30C30.55 33.5 31 33.05 31 32.5V29.5C32.1 29.5 33 28.8 33 28V23.5C33 22.4 32.1 21.5 31 21.5ZM13.5 27C12.67 27 12 26.33 12 25.5C12 24.67 12.67 24 13.5 24C14.33 24 15 24.67 15 25.5C15 26.33 14.33 27 13.5 27ZM26.5 27C25.67 27 25 26.33 25 25.5C25 24.67 25.67 24 26.5 24C27.33 24 28 24.67 28 25.5C28 26.33 27.33 27 26.5 27ZM27 20H13L14.5 16H25.5L27 20Z" fill="white"/>
</svg>